<svg viewBox="0 0 24 25" fill="none" xmlns="http://www.w3.org/2000/svg">
<path d="M12 19.0835L16.2985 14.785L15.0588 13.5453L12.8824 15.7218V10.4865H11.1176V15.7218L8.94118 13.5453L7.70147 14.785L12 19.0835ZM3.76471 7.68088V20.3732C3.76471 20.4789 3.79863 20.5657 3.86647 20.6335C3.93431 20.7014 4.02108 20.7353 4.12676 20.7353H19.8732C19.9789 20.7353 20.0657 20.7014 20.1335 20.6335C20.2014 20.5657 20.2353 20.4789 20.2353 20.3732V7.68088H3.76471ZM4.21735 22.5C3.63049 22.5 3.11422 22.2772 2.66853 21.8315C2.22284 21.3858 2 20.8695 2 20.2826V6.62441C2 6.37265 2.04039 6.13245 2.12118 5.90382C2.20176 5.67539 2.32275 5.46461 2.48412 5.27147L4.13588 3.27382C4.32882 3.02186 4.5701 2.8299 4.85971 2.69794C5.14931 2.56598 5.45549 2.5 5.77824 2.5H18.1991C18.5219 2.5 18.8299 2.56598 19.1232 2.69794C19.4166 2.8299 19.6598 3.02186 19.8529 3.27382L21.5159 5.29412C21.6773 5.48725 21.7982 5.6999 21.8788 5.93206C21.9596 6.16441 22 6.40657 22 6.65853V20.2826C22 20.8695 21.7772 21.3858 21.3315 21.8315C20.8858 22.2772 20.3695 22.5 19.7826 22.5H4.21735ZM4.22412 5.91647H19.7647L18.4818 4.38912C18.4441 4.35147 18.4008 4.32128 18.3518 4.29853C18.3027 4.27598 18.2519 4.26471 18.1991 4.26471H5.78971C5.73696 4.26471 5.68598 4.27598 5.63676 4.29853C5.58774 4.32128 5.54441 4.35147 5.50677 4.38912L4.22412 5.91647Z"/>
</svg>
